<?xml version="1.0" encoding="UTF-8" standalone="no"?>
<!-- Created with Inkscape (http://www.inkscape.org/) -->

<svg
   width="24"
   height="24"
   viewBox="0 0 24 24"
   version="1.1"
   id="svg5"
   xmlns="http://www.w3.org/2000/svg"
   xmlns:svg="http://www.w3.org/2000/svg">
  <defs
     id="defs2" />
  <g
     id="layer1"
     style="stroke:none;stroke-opacity:1;stroke-width:0.5;stroke-miterlimit:4;stroke-dasharray:none;paint-order:normal;stroke-linejoin:miter;stroke-linecap:round">
    <g
       id="g2854"
       style="stroke:none;stroke-opacity:1;stroke-width:0.5;stroke-miterlimit:4;stroke-dasharray:none;paint-order:normal;stroke-linejoin:miter;stroke-linecap:round">
      <path
         id="path50"
         style="fill:#ffff00;fill-rule:evenodd;stroke-width:0.5;fill-opacity:1;stroke:none;stroke-opacity:1;stroke-miterlimit:4;stroke-dasharray:none;paint-order:normal;stroke-linejoin:miter;stroke-linecap:round"
         d="M 12 12 L 7.1347656 4.4296875 A 9 9 0 0 0 3.8125 8.2617188 L 12 12 z " />
      <path
         id="path1202"
         style="fill:#ff8000;fill-rule:evenodd;stroke-width:0.5;fill-opacity:1;stroke:none;stroke-opacity:1;stroke-miterlimit:4;stroke-dasharray:none;paint-order:normal;stroke-linejoin:miter;stroke-linecap:round"
         d="M 12 12 L 3.8125 8.2617188 A 9 9 0 0 0 3 12 A 9 9 0 0 0 3.0917969 13.28125 L 12 12 z " />
      <path
         id="path1200"
         style="fill:#ff00ff;fill-rule:evenodd;stroke-width:0.5;fill-opacity:1;stroke:none;stroke-opacity:1;stroke-miterlimit:4;stroke-dasharray:none;paint-order:normal;stroke-linejoin:miter;stroke-linecap:round"
         d="M 12 12 L 3.0917969 13.28125 A 9 9 0 0 0 5.1992188 17.894531 L 12 12 z " />
      <path
         id="path1198"
         style="fill:#ff0000;fill-rule:evenodd;stroke-width:0.5;fill-opacity:1;stroke:none;stroke-opacity:1;stroke-miterlimit:4;stroke-dasharray:none;paint-order:normal;stroke-linejoin:miter;stroke-linecap:round"
         d="M 12 12 L 5.1992188 17.894531 A 9 9 0 0 0 9.4648438 20.634766 L 12 12 z " />
      <path
         id="path1196"
         style="fill:#808080;fill-rule:evenodd;stroke-width:0.5;fill-opacity:1;stroke:none;stroke-opacity:1;stroke-miterlimit:4;stroke-dasharray:none;paint-order:normal;stroke-linejoin:miter;stroke-linecap:round"
         d="M 12 12 L 9.4648438 20.634766 A 9 9 0 0 0 12 21 A 9 9 0 0 0 14.535156 20.634766 L 12 12 z " />
      <path
         id="path1194"
         style="fill:#3333cc;fill-rule:evenodd;stroke-width:0.5;fill-opacity:1;stroke:none;stroke-opacity:1;stroke-miterlimit:4;stroke-dasharray:none;paint-order:normal;stroke-linejoin:miter;stroke-linecap:round"
         d="M 12 12 L 14.535156 20.634766 A 9 9 0 0 0 14.537109 20.634766 A 9 9 0 0 0 18.800781 17.894531 L 12 12 z " />
      <path
         id="path1192"
         style="fill:#00ff00;fill-rule:evenodd;stroke-width:0.5;fill-opacity:1;stroke:none;stroke-opacity:1;stroke-miterlimit:4;stroke-dasharray:none;paint-order:normal;stroke-linejoin:miter;stroke-linecap:round"
         d="M 12 12 L 18.800781 17.894531 A 9 9 0 0 0 20.908203 13.279297 L 12 12 z " />
      <path
         id="path1190"
         style="fill:#00c0ff;fill-rule:evenodd;stroke-width:0.5;fill-opacity:1;stroke:none;stroke-opacity:1;stroke-miterlimit:4;stroke-dasharray:none;paint-order:normal;stroke-linejoin:miter;stroke-linecap:round"
         d="M 12 12 L 20.908203 13.279297 A 9 9 0 0 0 21 12 A 9 9 0 0 0 20.185547 8.2617188 L 12 12 z " />
      <path
         id="path1188"
         style="fill:#008000;fill-rule:evenodd;stroke-width:0.5;fill-opacity:1;stroke:none;stroke-opacity:1;stroke-miterlimit:4;stroke-dasharray:none;paint-order:normal;stroke-linejoin:miter;stroke-linecap:round"
         d="M 12 12 L 20.185547 8.2617188 A 9 9 0 0 0 16.863281 4.4316406 L 12 12 z " />
      <path
         id="path1186"
         style="fill:#ffffff;fill-rule:evenodd;stroke-width:0.5;fill-opacity:1;stroke:none;stroke-opacity:1;stroke-miterlimit:4;stroke-dasharray:none;paint-order:normal;stroke-linejoin:miter;stroke-linecap:round"
         d="M 12 3 A 9 9 0 0 0 7.1347656 4.4296875 L 12 12 L 12 3 z " />
      <path
         id="path1184"
         style="fill:#000000;fill-rule:evenodd;stroke-width:0.5;fill-opacity:1;stroke:none;stroke-opacity:1;stroke-miterlimit:4;stroke-dasharray:none;paint-order:normal;stroke-linejoin:miter;stroke-linecap:round"
         d="M 12 3 L 12 12 L 16.863281 4.4316406 A 9 9 0 0 0 12 3 z " />
    </g>
  </g>
  <circle
     style="fill:none;stroke:#000000;stroke-width:0.486487;stroke-miterlimit:4;stroke-dasharray:none;stroke-opacity:1;paint-order:normal"
     id="path6221"
     cx="12"
     cy="12"
     r="8.7567568" />
</svg>
