<?xml version="1.0" encoding="UTF-8" standalone="no"?>
<!-- Created with Inkscape (http://www.inkscape.org/) -->

<svg
   width="24"
   height="24"
   viewBox="0 0 6.3499999 6.3500002"
   version="1.1"
   id="svg6373"
   xmlns:xlink="http://www.w3.org/1999/xlink"
   xmlns="http://www.w3.org/2000/svg"
   xmlns:svg="http://www.w3.org/2000/svg">
  <defs
     id="defs6370">
    <linearGradient
       xlink:href="#a"
       id="d"
       gradientUnits="userSpaceOnUse"
       gradientTransform="matrix(0.1984297,0.1984297,-0.1984297,0.1984297,4.4211788,-5.7590998)"
       x1="14.278"
       y1="10.876"
       x2="32.181999"
       y2="29.162001" />
    <linearGradient
       id="a">
      <stop
         style="stop-color:#ff8c82;stop-opacity:1"
         offset="0"
         id="stop2" />
      <stop
         style="stop-color:#ed5353;stop-opacity:1"
         offset="1"
         id="stop4" />
    </linearGradient>
  </defs>
  <g
     id="layer1">
    <rect
       style="fill:#ffffff;fill-opacity:1;stroke-width:0.0732242;stroke-linecap:round;stroke-linejoin:round;paint-order:stroke fill markers"
       id="rect6456"
       width="5.2916665"
       height="1.0583334"
       x="0.5291667"
       y="2.6458333" />
    <g
       id="g6656"
       transform="matrix(1.4001786,0,0,1.4001786,-3.8273798,-4.1428032)">
      <path
         style="fill:url(#d);fill-opacity:1;stroke:none;stroke-width:0.396864;stroke-linecap:round;stroke-linejoin:round;paint-order:stroke markers fill;stop-color:#000000"
         d="M 5.5955449,4.0358697 5.0015619,4.6308527 4.405579,4.0358697 3.810596,4.6308527 4.405579,5.2268356 3.810596,5.8218186 4.405579,6.4168015 5.0015619,5.8218186 5.5965449,6.4168015 6.1915279,5.8218186 5.5965449,5.2268356 6.1915279,4.6308527 Z"
         id="path18" />
      <path
         style="fill:#ff8c82;fill-opacity:1;stroke:none;stroke-width:0.396859;stroke-linecap:round;stroke-linejoin:round;paint-order:stroke markers fill;stop-color:#000000"
         d="M 4.405844,4.036829 3.810556,4.632117 3.9970796,4.8186406 4.4047857,4.411199 4.8130209,4.8191697 a 0.26457242,0.26457242 0 0 0 0.3751637,0 L 5.5964199,4.4109345 6.0046551,4.8191697 6.1917078,4.632117 5.5964199,4.036829 5.0011319,4.632117 Z"
         id="path20" />
      <path
         style="fill:none;stroke:#7a0000;stroke-width:0.264575;stroke-linecap:round;stroke-linejoin:round;stroke-miterlimit:4;stroke-dasharray:none;paint-order:stroke markers fill;stop-color:#000000"
         d="M 5.5955449,4.0358697 5.0015619,4.6308527 4.405579,4.0358697 3.810596,4.6308527 4.405579,5.2268356 3.810596,5.8218186 4.405579,6.4168015 5.0015619,5.8218186 5.5965449,6.4168015 6.1915279,5.8218186 5.5965449,5.2268356 6.1915279,4.6308527 Z"
         id="path22" />
    </g>
  </g>
</svg>
