<?xml version="1.0"?>
<svg width="5.821" height="5.821" xmlns="http://www.w3.org/2000/svg" xmlns:svg="http://www.w3.org/2000/svg" xmlns:xlink="http://www.w3.org/1999/xlink">
 <defs>
  <linearGradient id="b">
   <stop offset="0" stop-color="#d4d4d4"/>
   <stop offset="1" stop-color="#fafafa"/>
  </linearGradient>
  <linearGradient id="c" x1="0.52" x2="0.53" xlink:href="#b" y1="1.12" y2="0"/>
 </defs>
 <g class="layer">
  <title>Layer 1</title>
  <path d="m1.05,0.26l0,4.76l3.72,-0.02l-0.02,-4.74l-3.7,0z" fill="url(#c)" id="svg_1" stroke-linejoin="round" stroke-miterlimit="4" stroke-width="2.14"/>
  <path d="m18,10.5l0,-9.5l-14,0l0,18l6.88,0" fill="none" id="svg_5" stroke="#555761" stroke-linejoin="round" stroke-miterlimit="4" transform="matrix(1, 0, 0, 1, 0, 0) matrix(1, 0, 0, 1, 0, 0) matrix(0.26458, 0, 0, 0.26458, -0.00494144, 0)"/>
  <g id="svg_6" transform="matrix(1, 0, 0, 1, 0, 0)">
   <path d="m5.28,3.7l-0.07,0a1.23,1.23 0 0 0 -0.08,-0.19l0.05,-0.05a0.28,0.28 0 0 0 0,-0.4l-0.14,-0.13a0.28,0.28 0 0 0 -0.4,0l-0.05,0.05a1.24,1.24 0 0 0 -0.19,-0.09l0,-0.07a0.28,0.28 0 0 0 -0.28,-0.28l-0.19,0a0.28,0.28 0 0 0 -0.28,0.28l0,0.06c-0.07,0.03 -0.13,0.05 -0.19,0.08l-0.05,-0.05a0.28,0.28 0 0 0 -0.4,0l-0.13,0.14a0.28,0.28 0 0 0 0,0.4l0.05,0.05a1.22,1.22 0 0 0 -0.08,0.19l-0.07,0a0.28,0.28 0 0 0 -0.28,0.28l0,0.19a0.28,0.28 0 0 0 0.28,0.28l0.07,0c0.02,0.07 0.05,0.13 0.08,0.19l-0.05,0.05a0.28,0.28 0 0 0 0,0.4l0.13,0.13c0.11,0.11 0.29,0.11 0.4,0l0.05,-0.05c0.06,0.03 0.12,0.06 0.19,0.09l0,0.07a0.28,0.28 0 0 0 0.28,0.28l0.19,0a0.28,0.28 0 0 0 0.28,-0.28l0,-0.06c0.07,-0.03 0.13,-0.05 0.19,-0.09l0.05,0.05c0.11,0.11 0.29,0.11 0.4,0l0.14,-0.13a0.28,0.28 0 0 0 0,-0.4l-0.05,-0.05c0.03,-0.06 0.06,-0.12 0.08,-0.19l0.07,0a0.28,0.28 0 0 0 0.28,-0.28l0,-0.19a0.28,0.28 0 0 0 -0.28,-0.28zm-1.25,1.05a0.66,0.66 0 0 1 0,-1.34a0.66,0.66 0 0 1 0,1.34z" fill="#667885" fill-rule="evenodd" id="svg_7" stroke-width="0.26"/>
   <path d="m5.28,3.7l-0.07,0a1.23,1.23 0 0 0 -0.08,-0.19l0.05,-0.05a0.28,0.28 0 0 0 0,-0.4l-0.14,-0.13a0.28,0.28 0 0 0 -0.4,0l-0.05,0.05a1.24,1.24 0 0 0 -0.19,-0.09l0,-0.07a0.28,0.28 0 0 0 -0.28,-0.28l-0.19,0a0.28,0.28 0 0 0 -0.28,0.28l0,0.06c-0.07,0.03 -0.13,0.05 -0.19,0.08l-0.05,-0.05a0.28,0.28 0 0 0 -0.4,0l-0.13,0.14a0.28,0.28 0 0 0 0,0.4l0.05,0.05a1.22,1.22 0 0 0 -0.08,0.19l-0.07,0a0.28,0.28 0 0 0 -0.28,0.28l0,0.19a0.28,0.28 0 0 0 0.28,0.28l0.07,0c0.02,0.07 0.05,0.13 0.08,0.19l-0.05,0.05a0.28,0.28 0 0 0 0,0.4l0.13,0.13c0.11,0.11 0.29,0.11 0.4,0l0.05,-0.05c0.06,0.03 0.12,0.06 0.19,0.09l0,0.07a0.28,0.28 0 0 0 0.28,0.28l0.19,0a0.28,0.28 0 0 0 0.28,-0.28l0,-0.06c0.07,-0.03 0.13,-0.05 0.19,-0.09l0.05,0.05c0.11,0.11 0.29,0.11 0.4,0l0.14,-0.13a0.28,0.28 0 0 0 0,-0.4l-0.05,-0.05c0.03,-0.06 0.06,-0.12 0.08,-0.19l0.07,0a0.28,0.28 0 0 0 0.28,-0.28l0,-0.19a0.28,0.28 0 0 0 -0.28,-0.28zm-1.25,1.05a0.66,0.66 0 0 1 0,-1.34a0.66,0.66 0 0 1 0,1.34z" fill="none" fill-rule="evenodd" id="svg_8" stroke="#273445" stroke-width="0.26"/>
   <path d="m2.81,3.16a0.28,0.28 0 0 0 0.05,0.28c0.02,-0.05 0.04,-0.1 0.06,-0.14l-0.05,-0.05a0.28,0.28 0 0 1 -0.06,-0.09zm2.43,0a0.28,0.28 0 0 1 -0.06,0.09l-0.05,0.05a1.25,1.25 0 0 1 0.06,0.14a0.28,0.28 0 0 0 0.05,-0.28zm-2.74,0.82l0,0.01l0,0.19a0.28,0.28 0 0 0 0.28,0.28l0.06,0c0.01,0.01 0.01,0.03 0.02,0.05l0.02,-0.02l0.04,-0.05a1.23,1.23 0 0 1 -0.08,-0.19l-0.06,0a0.28,0.28 0 0 1 -0.28,-0.27zm3.06,0a0.28,0.28 0 0 1 -0.28,0.27l-0.07,0a1.24,1.24 0 0 1 -0.08,0.19l0.05,0.05l0.01,0.02c0.01,-0.01 0.01,-0.03 0.02,-0.05l0.07,0a0.28,0.28 0 0 0 0.28,-0.28l0,-0.19a0.04,0.04 0 0 0 0,-0.01zm-2.74,0.82a0.28,0.28 0 0 0 0.06,0.3l0.14,0.13a0.28,0.28 0 0 0 0.4,0l0.05,-0.05c0.06,0.03 0.12,0.06 0.19,0.09l0,0.07a0.28,0.28 0 0 0 0.28,0.28l0.19,0a0.28,0.28 0 0 0 0.28,-0.28l0,-0.07c0.07,-0.03 0.13,-0.05 0.19,-0.08l0.05,0.05c0.11,0.11 0.29,0.11 0.4,0l0.14,-0.14a0.28,0.28 0 0 0 0.06,-0.3a0.28,0.28 0 0 1 -0.06,0.09l-0.14,0.14a0.28,0.28 0 0 1 -0.4,0l-0.05,-0.05a1.24,1.24 0 0 1 -0.19,0.08l0,0.07a0.28,0.28 0 0 1 -0.28,0.28l-0.19,0a0.28,0.28 0 0 1 -0.28,-0.28l0,-0.07a1.24,1.24 0 0 1 -0.19,-0.08l-0.05,0.05a0.28,0.28 0 0 1 -0.4,0l-0.14,-0.14a0.28,0.28 0 0 1 -0.06,-0.09z" fill="#485a6c" fill-rule="evenodd" id="svg_9" stroke-width="0.26"/>
   <path d="m3.93,2.55a0.28,0.28 0 0 0 -0.28,0.28l0,0.06c-0.07,0.03 -0.13,0.05 -0.19,0.08l-0.05,-0.05a0.28,0.28 0 0 0 -0.4,0l-0.13,0.14a0.28,0.28 0 0 0 -0.08,0.26a0.28,0.28 0 0 1 0.08,-0.14l0.13,-0.14a0.28,0.28 0 0 1 0.4,0l0.05,0.05c0.06,-0.03 0.12,-0.06 0.19,-0.08l0,-0.07a0.28,0.28 0 0 1 0.28,-0.28l0.19,0a0.28,0.28 0 0 1 0.28,0.28l0,0.07c0.07,0.03 0.13,0.05 0.19,0.08l0.05,-0.05a0.28,0.28 0 0 1 0.4,0l0.14,0.14a0.28,0.28 0 0 1 0.07,0.14a0.28,0.28 0 0 0 -0.07,-0.26l-0.14,-0.14a0.28,0.28 0 0 0 -0.4,0l-0.05,0.05a1.24,1.24 0 0 0 -0.19,-0.08l0,-0.07a0.28,0.28 0 0 0 -0.28,-0.28l-0.19,0zm-1.05,1.04a1.24,1.24 0 0 0 -0.05,0.11l-0.06,0a0.28,0.28 0 0 0 -0.28,0.28l0,0.12a0.28,0.28 0 0 1 0.28,-0.28l0.06,0c0.03,-0.07 0.05,-0.13 0.08,-0.19l-0.03,-0.04zm2.28,0l-0.04,0.04c0.03,0.06 0.06,0.12 0.09,0.19l0.07,0a0.28,0.28 0 0 1 0.28,0.28l0,-0.12a0.28,0.28 0 0 0 -0.28,-0.28l-0.07,0a1.24,1.24 0 0 0 -0.05,-0.11zm-2.28,1.1l-0.01,0.01a0.28,0.28 0 0 0 -0.08,0.26a0.28,0.28 0 0 1 0.08,-0.14l0.05,-0.05a0.9,0.9 0 0 1 -0.04,-0.08zm2.28,0a1.22,1.22 0 0 1 -0.04,0.08l0.05,0.05a0.28,0.28 0 0 1 0.08,0.14a0.28,0.28 0 0 0 -0.07,-0.26l-0.01,-0.01z" fill="#95a3ab" fill-rule="evenodd" id="svg_10" stroke-width="0.26"/>
  </g>
 </g>
</svg>