<?xml version="1.0"?>
<svg width="5.821" height="5.821" xmlns="http://www.w3.org/2000/svg" xmlns:svg="http://www.w3.org/2000/svg" xmlns:xlink="http://www.w3.org/1999/xlink">
 <defs>
  <linearGradient id="d">
   <stop offset="0" stop-color="#fafafa"/>
   <stop offset="1" stop-color="#fff" stop-opacity="0"/>
  </linearGradient>
  <linearGradient id="f" x1="-0.93" x2="1.96" xlink:href="#d" y1="0.5" y2="0.5"/>
 </defs>
 <g class="layer">
  <title>Layer 1</title>
  <g id="svg_1" transform="translate(0 -291.18)">
   <rect fill="#ed5353" height="1.73" id="svg_2" rx="0.23" ry="0.24" stroke-linecap="round" stroke-linejoin="round" stroke-miterlimit="4" stroke-width="0.16" transform="rotate(15)" width="1.61" x="78.02" y="280.97"/>
   <path d="m3.88,291.93l-0.23,0.88l0.3,0.08l0.17,-0.65c0.04,-0.13 -0.03,-0.26 -0.15,-0.29l-0.09,-0.02z" fill="#c01c28" id="svg_3" stroke-linecap="round" stroke-linejoin="round" stroke-miterlimit="4" stroke-width="0.16"/>
   <rect fill="none" height="1.73" id="svg_4" rx="0.23" ry="0.24" stroke="#7a0000" stroke-linecap="round" stroke-linejoin="round" stroke-miterlimit="4" stroke-width="0.26" transform="rotate(15)" width="1.61" x="78.02" y="280.97"/>
   <path d="m78.02,281.89l1.6,0l0,2.75l-1.6,0l0,-2.75z" fill="#f9c440" id="svg_5" stroke-linecap="round" stroke-linejoin="round" stroke-miterlimit="4" stroke-width="0.21" transform="rotate(15)"/>
   <path d="m3.24,295.55l-1.13,1.11l-0.42,-1.53l1.55,0.42z" fill="#beaea1" id="svg_6" stroke-width="0.24px"/>
   <path d="m2.93,295.46l-0.9,0.89l0.08,0.31l1.13,-1.11l-0.31,-0.09z" fill="#715344" id="svg_7" stroke-width="0.24px"/>
   <path d="m3.24,295.55l-1.13,1.11l-0.42,-1.53" fill="none" id="svg_8" stroke="#57392d" stroke-linecap="round" stroke-linejoin="round" stroke-miterlimit="4" stroke-width="0.26"/>
   <path d="m3.65,292.81l-0.72,2.65l0.31,0.09l0.71,-2.66l-0.3,-0.08z" fill="#e5a50a" id="svg_9" stroke-linecap="round" stroke-linejoin="round" stroke-miterlimit="4" stroke-width="0.21"/>
   <path d="m3.95,292.89l-0.71,2.66m-1.55,-0.42l0.71,-2.66" fill="none" id="svg_10" stroke="#ad5f00" stroke-linecap="round" stroke-linejoin="round" stroke-miterlimit="4" stroke-width="0.26"/>
   <rect fill="url(#f)" height="3.08" id="svg_11" rx="0.15" ry="0.14" stroke-linecap="round" stroke-linejoin="round" stroke-miterlimit="4" stroke-width="0.19" transform="rotate(15)" width="0.34" x="78.27" y="281.33"/>
   <path d="m1.94,296.05l0.17,0.61l0.45,-0.44l-0.62,-0.17z" fill="#0e141f" id="svg_12" stroke-width="0.29px"/>
  </g>
  <g id="svg_21">
   <path d="m5.21,4.11l-0.05,0a0.88,0.88 0 0 0 -0.06,-0.14l0.03,-0.03a0.2,0.2 0 0 0 0,-0.29l-0.1,-0.09a0.2,0.2 0 0 0 -0.29,0l-0.03,0.03a0.88,0.88 0 0 0 -0.14,-0.06l0,-0.05a0.2,0.2 0 0 0 -0.2,-0.2l-0.14,0a0.2,0.2 0 0 0 -0.2,0.2l0,0.04c-0.05,0.02 -0.09,0.04 -0.14,0.06l-0.03,-0.03a0.2,0.2 0 0 0 -0.29,0l-0.09,0.1a0.2,0.2 0 0 0 0,0.29l0.03,0.03a0.87,0.87 0 0 0 -0.06,0.14l-0.05,0a0.2,0.2 0 0 0 -0.2,0.2l0,0.14a0.2,0.2 0 0 0 0.2,0.2l0.05,0c0.01,0.05 0.03,0.09 0.06,0.14l-0.03,0.03a0.2,0.2 0 0 0 0,0.29l0.09,0.09c0.08,0.08 0.21,0.08 0.29,0l0.03,-0.03c0.04,0.02 0.09,0.04 0.14,0.06l0,0.05a0.2,0.2 0 0 0 0.2,0.2l0.14,0a0.2,0.2 0 0 0 0.2,-0.2l0,-0.04c0.05,-0.02 0.09,-0.04 0.14,-0.06l0.03,0.03c0.08,0.08 0.21,0.08 0.29,0l0.1,-0.09a0.2,0.2 0 0 0 0,-0.29l-0.03,-0.03c0.02,-0.04 0.04,-0.09 0.06,-0.14l0.05,0a0.2,0.2 0 0 0 0.2,-0.2l0,-0.14a0.2,0.2 0 0 0 -0.2,-0.2zm-0.89,0.75a0.47,0.47 0 0 1 0,-0.95a0.47,0.47 0 0 1 0,0.95z" fill="#667885" fill-rule="evenodd" id="svg_20" stroke-width="0.26"/>
   <path d="m5.21,4.11l-0.05,0a0.88,0.88 0 0 0 -0.06,-0.14l0.03,-0.03a0.2,0.2 0 0 0 0,-0.29l-0.1,-0.09a0.2,0.2 0 0 0 -0.29,0l-0.03,0.03a0.88,0.88 0 0 0 -0.14,-0.06l0,-0.05a0.2,0.2 0 0 0 -0.2,-0.2l-0.14,0a0.2,0.2 0 0 0 -0.2,0.2l0,0.04c-0.05,0.02 -0.09,0.04 -0.14,0.06l-0.03,-0.03a0.2,0.2 0 0 0 -0.29,0l-0.09,0.1a0.2,0.2 0 0 0 0,0.29l0.03,0.03a0.87,0.87 0 0 0 -0.06,0.14l-0.05,0a0.2,0.2 0 0 0 -0.2,0.2l0,0.14a0.2,0.2 0 0 0 0.2,0.2l0.05,0c0.01,0.05 0.03,0.09 0.06,0.14l-0.03,0.03a0.2,0.2 0 0 0 0,0.29l0.09,0.09c0.08,0.08 0.21,0.08 0.29,0l0.03,-0.03c0.04,0.02 0.09,0.04 0.14,0.06l0,0.05a0.2,0.2 0 0 0 0.2,0.2l0.14,0a0.2,0.2 0 0 0 0.2,-0.2l0,-0.04c0.05,-0.02 0.09,-0.04 0.14,-0.06l0.03,0.03c0.08,0.08 0.21,0.08 0.29,0l0.1,-0.09a0.2,0.2 0 0 0 0,-0.29l-0.03,-0.03c0.02,-0.04 0.04,-0.09 0.06,-0.14l0.05,0a0.2,0.2 0 0 0 0.2,-0.2l0,-0.14a0.2,0.2 0 0 0 -0.2,-0.2zm-0.89,0.75a0.47,0.47 0 0 1 0,-0.95a0.47,0.47 0 0 1 0,0.95z" fill="none" fill-rule="evenodd" id="svg_19" stroke="#273445" stroke-width="0.26"/>
   <path d="m3.45,3.72a0.2,0.2 0 0 0 0.03,0.2c0.01,-0.04 0.03,-0.07 0.04,-0.1l-0.03,-0.03a0.2,0.2 0 0 1 -0.04,-0.07zm1.73,0a0.2,0.2 0 0 1 -0.04,0.07l-0.03,0.03a0.89,0.89 0 0 1 0.04,0.1a0.2,0.2 0 0 0 0.03,-0.2zm-1.96,0.58l0,0l0,0.14a0.2,0.2 0 0 0 0.2,0.2l0.04,0c0,0.01 0.01,0.02 0.01,0.03l0.01,-0.01l0.03,-0.03a0.88,0.88 0 0 1 -0.06,-0.14l-0.04,0a0.2,0.2 0 0 1 -0.2,-0.19zm2.18,0a0.2,0.2 0 0 1 -0.2,0.19l-0.05,0a0.88,0.88 0 0 1 -0.06,0.14l0.03,0.03l0.01,0.01c0,-0.01 0.01,-0.02 0.01,-0.03l0.05,0a0.2,0.2 0 0 0 0.2,-0.2l0,-0.14a0.03,0.03 0 0 0 0,0zm-1.96,0.58a0.2,0.2 0 0 0 0.04,0.22l0.1,0.09a0.2,0.2 0 0 0 0.29,0l0.03,-0.03c0.04,0.02 0.09,0.04 0.14,0.06l0,0.05a0.2,0.2 0 0 0 0.2,0.2l0.14,0a0.2,0.2 0 0 0 0.2,-0.2l0,-0.05c0.05,-0.02 0.09,-0.04 0.14,-0.06l0.03,0.03c0.08,0.08 0.21,0.08 0.29,0l0.1,-0.1a0.2,0.2 0 0 0 0.04,-0.22a0.2,0.2 0 0 1 -0.04,0.07l-0.1,0.1a0.2,0.2 0 0 1 -0.29,0l-0.03,-0.03a0.88,0.88 0 0 1 -0.14,0.06l0,0.05a0.2,0.2 0 0 1 -0.2,0.2l-0.14,0a0.2,0.2 0 0 1 -0.2,-0.2l0,-0.05a0.88,0.88 0 0 1 -0.14,-0.06l-0.03,0.03a0.2,0.2 0 0 1 -0.29,0l-0.1,-0.1a0.2,0.2 0 0 1 -0.04,-0.07z" fill="#485a6c" fill-rule="evenodd" id="svg_18" stroke-width="0.26"/>
   <path d="m4.25,3.29a0.2,0.2 0 0 0 -0.2,0.2l0,0.04c-0.05,0.02 -0.09,0.04 -0.14,0.06l-0.03,-0.03a0.2,0.2 0 0 0 -0.29,0l-0.09,0.1a0.2,0.2 0 0 0 -0.06,0.18a0.2,0.2 0 0 1 0.06,-0.1l0.09,-0.1a0.2,0.2 0 0 1 0.29,0l0.03,0.03c0.04,-0.02 0.09,-0.04 0.14,-0.06l0,-0.05a0.2,0.2 0 0 1 0.2,-0.2l0.14,0a0.2,0.2 0 0 1 0.2,0.2l0,0.05c0.05,0.02 0.09,0.04 0.14,0.06l0.03,-0.03a0.2,0.2 0 0 1 0.29,0l0.1,0.1a0.2,0.2 0 0 1 0.05,0.1a0.2,0.2 0 0 0 -0.05,-0.18l-0.1,-0.1a0.2,0.2 0 0 0 -0.29,0l-0.03,0.03a0.89,0.89 0 0 0 -0.14,-0.06l0,-0.05a0.2,0.2 0 0 0 -0.2,-0.2l-0.14,0zm-0.75,0.74a0.88,0.88 0 0 0 -0.03,0.08l-0.04,0a0.2,0.2 0 0 0 -0.2,0.2l0,0.08a0.2,0.2 0 0 1 0.2,-0.2l0.04,0c0.02,-0.05 0.04,-0.09 0.06,-0.14l-0.02,-0.03zm1.63,0l-0.03,0.03c0.02,0.04 0.04,0.09 0.06,0.14l0.05,0a0.2,0.2 0 0 1 0.2,0.2l0,-0.08a0.2,0.2 0 0 0 -0.2,-0.2l-0.05,0a0.88,0.88 0 0 0 -0.03,-0.08zm-1.63,0.78l0,0a0.2,0.2 0 0 0 -0.06,0.19a0.2,0.2 0 0 1 0.06,-0.1l0.03,-0.03a0.64,0.64 0 0 1 -0.03,-0.06zm1.63,0a0.87,0.87 0 0 1 -0.03,0.06l0.03,0.03a0.2,0.2 0 0 1 0.06,0.1a0.2,0.2 0 0 0 -0.05,-0.19l-0.01,0z" fill="#95a3ab" fill-rule="evenodd" id="svg_17" stroke-width="0.26"/>
  </g>
 </g>
</svg>