<?xml version="1.0"?>
<svg width="5.821" height="5.821" xmlns="http://www.w3.org/2000/svg" xmlns:svg="http://www.w3.org/2000/svg" xmlns:xlink="http://www.w3.org/1999/xlink">
 <defs>
  <linearGradient id="d">
   <stop offset="0" stop-color="#fff"/>
   <stop offset="1" stop-color="#fff" stop-opacity="0"/>
  </linearGradient>
  <linearGradient id="f" x1="0.54" x2="0.56" xlink:href="#d" y1="-1.11" y2="3.14"/>
 </defs>
 <g class="layer">
  <title>Layer 1</title>
  <g id="svg_1" transform="translate(0 -291.18)">
   <rect fill="#c6262e" height="3.4" id="svg_2" rx="0.23" ry="0.24" stroke-linecap="round" stroke-linejoin="round" stroke-miterlimit="4" stroke-width="0.26" transform="rotate(15)" width="2.68" x="77.58" y="280.9"/>
   <rect fill="#d4d4d4" height="1.36" id="svg_3" rx="0.23" ry="0.24" stroke-linecap="round" stroke-linejoin="round" stroke-miterlimit="4" stroke-width="0.26" transform="rotate(15)" width="2.68" x="77.58" y="284.3"/>
   <path d="m77.58,284.3l2.68,0l0,0.28l-2.68,0l0,-0.28z" fill="#d4d4d4" id="svg_4" stroke-linecap="round" stroke-linejoin="round" stroke-miterlimit="4" stroke-width="0.26" transform="rotate(15)"/>
   <path d="m77.58,284.03l2.68,0l0,0.27l-2.68,0l0,-0.27z" fill="#c6262e" id="svg_5" stroke-linecap="round" stroke-linejoin="round" stroke-miterlimit="4" stroke-width="0.26" transform="rotate(15)"/>
   <rect fill="#d4d4d4" height="1.36" id="svg_6" rx="0.23" ry="0.24" stroke-linecap="round" stroke-linejoin="round" stroke-miterlimit="4" stroke-width="0.26" transform="rotate(15)" width="2.68" x="77.58" y="284.3"/>
   <rect fill="url(#f)" height="0.44" id="svg_7" rx="0.13" ry="0.1" stroke-linecap="round" stroke-linejoin="round" stroke-miterlimit="4" stroke-width="0.12" transform="rotate(-75)" width="4.22" x="-285.4" y="77.91"/>
   <path d="m4.52,292.02l-0.88,3.29l0.09,0.02l0.21,0.06l0.07,-0.24l0,-0.03l0.75,-2.78c0.03,-0.13 -0.03,-0.26 -0.16,-0.29l-0.08,-0.03z" fill="#7a0000" id="svg_8" stroke-linecap="round" stroke-linejoin="round" stroke-miterlimit="4" stroke-width="0.26"/>
   <path d="m3.94,295.39l0.07,-0.24l0,-0.03l0.75,-2.78c0.03,-0.13 -0.03,-0.26 -0.16,-0.29l-2.15,-0.58c-0.12,-0.03 -0.25,0.05 -0.28,0.18l-0.75,2.78l-0.01,0.03l-0.06,0.23" fill="none" id="svg_9" stroke="#a10705" stroke-linejoin="round" stroke-miterlimit="4" stroke-width="0.26"/>
   <path d="m3.64,295.31l-0.36,1.32l0.09,0.02c0.12,0.03 0.25,-0.05 0.28,-0.18l0.23,-0.84c0.04,-0.13 -0.03,-0.27 -0.15,-0.3l-0.09,-0.02z" fill="#555761" id="svg_10" stroke-linecap="round" stroke-linejoin="round" stroke-miterlimit="4" stroke-width="0.26"/>
   <path d="m79.94,284.3l0.32,0l0,0.34l-0.32,0l0,-0.34z" fill="#555761" id="svg_11" stroke-linejoin="round" stroke-miterlimit="4" stroke-width="0.26" transform="rotate(15)"/>
   <path d="m1.35,294.69l-0.06,0.24l-0.01,0.03l-0.22,0.82c-0.03,0.13 0.03,0.26 0.16,0.29l2.15,0.58c0.12,0.03 0.25,-0.05 0.28,-0.18l0.23,-0.84l0.06,-0.24" fill="none" id="svg_12" stroke="#7e8087" stroke-linejoin="round" stroke-miterlimit="4" stroke-width="0.26"/>
  </g>
  <g id="svg_13">
   <path d="m5.17,4l-0.05,0a0.94,0.94 0 0 0 -0.06,-0.15l0.04,-0.04a0.22,0.22 0 0 0 0,-0.31l-0.11,-0.1a0.22,0.22 0 0 0 -0.31,0l-0.04,0.04a0.94,0.94 0 0 0 -0.15,-0.07l0,-0.05a0.22,0.22 0 0 0 -0.22,-0.21l-0.15,0a0.22,0.22 0 0 0 -0.22,0.22l0,0.05c-0.05,0.02 -0.1,0.04 -0.15,0.06l-0.04,-0.04a0.22,0.22 0 0 0 -0.31,0l-0.1,0.11a0.22,0.22 0 0 0 0,0.31l0.04,0.04a0.93,0.93 0 0 0 -0.06,0.15l-0.05,0a0.22,0.22 0 0 0 -0.22,0.22l0,0.15a0.22,0.22 0 0 0 0.22,0.22l0.05,0c0.02,0.05 0.04,0.1 0.06,0.15l-0.04,0.04a0.22,0.22 0 0 0 0,0.31l0.1,0.1c0.09,0.09 0.22,0.09 0.31,0l0.04,-0.04c0.05,0.03 0.1,0.05 0.15,0.07l0,0.05a0.22,0.22 0 0 0 0.22,0.21l0.15,0a0.22,0.22 0 0 0 0.22,-0.22l0,-0.05c0.05,-0.02 0.1,-0.04 0.15,-0.07l0.04,0.04c0.09,0.09 0.22,0.09 0.31,0l0.11,-0.1a0.22,0.22 0 0 0 0,-0.31l-0.04,-0.04c0.02,-0.05 0.05,-0.1 0.06,-0.15l0.05,0a0.22,0.22 0 0 0 0.21,-0.22l0,-0.15a0.22,0.22 0 0 0 -0.21,-0.22zm-0.95,0.8a0.51,0.51 0 0 1 0,-1.02a0.51,0.51 0 0 1 0,1.02z" fill="#667885" fill-rule="evenodd" id="svg_14" stroke-width="0.26"/>
   <path d="m5.17,4l-0.05,0a0.94,0.94 0 0 0 -0.06,-0.15l0.04,-0.04a0.22,0.22 0 0 0 0,-0.31l-0.11,-0.1a0.22,0.22 0 0 0 -0.31,0l-0.04,0.04a0.94,0.94 0 0 0 -0.15,-0.07l0,-0.05a0.22,0.22 0 0 0 -0.22,-0.21l-0.15,0a0.22,0.22 0 0 0 -0.22,0.22l0,0.05c-0.05,0.02 -0.1,0.04 -0.15,0.06l-0.04,-0.04a0.22,0.22 0 0 0 -0.31,0l-0.1,0.11a0.22,0.22 0 0 0 0,0.31l0.04,0.04a0.93,0.93 0 0 0 -0.06,0.15l-0.05,0a0.22,0.22 0 0 0 -0.22,0.22l0,0.15a0.22,0.22 0 0 0 0.22,0.22l0.05,0c0.02,0.05 0.04,0.1 0.06,0.15l-0.04,0.04a0.22,0.22 0 0 0 0,0.31l0.1,0.1c0.09,0.09 0.22,0.09 0.31,0l0.04,-0.04c0.05,0.03 0.1,0.05 0.15,0.07l0,0.05a0.22,0.22 0 0 0 0.22,0.21l0.15,0a0.22,0.22 0 0 0 0.22,-0.22l0,-0.05c0.05,-0.02 0.1,-0.04 0.15,-0.07l0.04,0.04c0.09,0.09 0.22,0.09 0.31,0l0.11,-0.1a0.22,0.22 0 0 0 0,-0.31l-0.04,-0.04c0.02,-0.05 0.05,-0.1 0.06,-0.15l0.05,0a0.22,0.22 0 0 0 0.21,-0.22l0,-0.15a0.22,0.22 0 0 0 -0.21,-0.22zm-0.95,0.8a0.51,0.51 0 0 1 0,-1.02a0.51,0.51 0 0 1 0,1.02z" fill="none" fill-rule="evenodd" id="svg_15" stroke="#273445" stroke-width="0.26"/>
   <path d="m3.3,3.59a0.22,0.22 0 0 0 0.04,0.22c0.02,-0.04 0.03,-0.08 0.05,-0.11l-0.04,-0.04a0.22,0.22 0 0 1 -0.05,-0.07zm1.85,0a0.22,0.22 0 0 1 -0.05,0.07l-0.04,0.04a0.95,0.95 0 0 1 0.05,0.11a0.22,0.22 0 0 0 0.04,-0.22zm-2.09,0.62l0,0.01l0,0.15a0.22,0.22 0 0 0 0.22,0.22l0.05,0c0.01,0.01 0.01,0.03 0.02,0.04l0.02,-0.02l0.03,-0.04a0.94,0.94 0 0 1 -0.06,-0.15l-0.05,0a0.22,0.22 0 0 1 -0.22,-0.21zm2.33,0a0.22,0.22 0 0 1 -0.21,0.21l-0.05,0a0.94,0.94 0 0 1 -0.06,0.15l0.04,0.04l0.01,0.02c0.01,-0.01 0.01,-0.03 0.02,-0.04l0.05,0a0.22,0.22 0 0 0 0.21,-0.22l0,-0.15a0.03,0.03 0 0 0 0,-0.01zm-2.09,0.62a0.22,0.22 0 0 0 0.05,0.23l0.11,0.1a0.22,0.22 0 0 0 0.31,0l0.04,-0.04c0.05,0.03 0.1,0.05 0.15,0.07l0,0.05a0.22,0.22 0 0 0 0.22,0.21l0.15,0a0.22,0.22 0 0 0 0.22,-0.21l0,-0.05c0.05,-0.02 0.1,-0.04 0.15,-0.06l0.04,0.04c0.09,0.09 0.22,0.08 0.31,0l0.11,-0.11a0.22,0.22 0 0 0 0.05,-0.23a0.22,0.22 0 0 1 -0.05,0.07l-0.11,0.11a0.22,0.22 0 0 1 -0.31,0l-0.04,-0.04a0.94,0.94 0 0 1 -0.15,0.06l0,0.05a0.22,0.22 0 0 1 -0.22,0.22l-0.15,0a0.22,0.22 0 0 1 -0.22,-0.22l0,-0.05a0.94,0.94 0 0 1 -0.15,-0.06l-0.04,0.04a0.22,0.22 0 0 1 -0.31,0l-0.11,-0.11a0.22,0.22 0 0 1 -0.05,-0.07z" fill="#485a6c" fill-rule="evenodd" id="svg_16" stroke-width="0.26"/>
   <path d="m4.15,3.12a0.22,0.22 0 0 0 -0.22,0.22l0,0.05c-0.05,0.02 -0.1,0.04 -0.15,0.06l-0.04,-0.04a0.22,0.22 0 0 0 -0.31,0l-0.1,0.11a0.22,0.22 0 0 0 -0.06,0.2a0.22,0.22 0 0 1 0.06,-0.11l0.1,-0.11a0.22,0.22 0 0 1 0.31,0l0.04,0.04c0.05,-0.02 0.1,-0.05 0.15,-0.06l0,-0.05a0.22,0.22 0 0 1 0.22,-0.21l0.15,0a0.22,0.22 0 0 1 0.22,0.21l0,0.05c0.05,0.02 0.1,0.04 0.15,0.06l0.04,-0.04a0.22,0.22 0 0 1 0.31,0l0.11,0.11a0.22,0.22 0 0 1 0.06,0.11a0.22,0.22 0 0 0 -0.06,-0.2l-0.11,-0.11a0.22,0.22 0 0 0 -0.31,0l-0.04,0.04a0.95,0.95 0 0 0 -0.15,-0.06l0,-0.05a0.22,0.22 0 0 0 -0.22,-0.21l-0.15,0zm-0.8,0.79a0.94,0.94 0 0 0 -0.04,0.09l-0.05,0a0.22,0.22 0 0 0 -0.22,0.22l0,0.09a0.22,0.22 0 0 1 0.22,-0.22l0.05,0c0.02,-0.05 0.04,-0.1 0.06,-0.15l-0.03,-0.03zm1.74,0l-0.03,0.03c0.03,0.05 0.05,0.1 0.07,0.15l0.05,0a0.22,0.22 0 0 1 0.21,0.22l0,-0.09a0.22,0.22 0 0 0 -0.21,-0.22l-0.05,0a0.94,0.94 0 0 0 -0.04,-0.09zm-1.74,0.84l-0.01,0.01a0.22,0.22 0 0 0 -0.06,0.2a0.21,0.21 0 0 1 0.06,-0.11l0.04,-0.04a0.69,0.69 0 0 1 -0.03,-0.06zm1.74,0a0.93,0.93 0 0 1 -0.03,0.06l0.04,0.04a0.21,0.21 0 0 1 0.06,0.11a0.22,0.22 0 0 0 -0.06,-0.2l-0.01,-0.01z" fill="#95a3ab" fill-rule="evenodd" id="svg_17" stroke-width="0.26"/>
  </g>
 </g>
</svg>